<svg xmlns="http://www.w3.org/2000/svg" xmlns:xlink="http://www.w3.org/1999/xlink" width="500" zoomAndPan="magnify" viewBox="0 0 375 374.999991" height="500" preserveAspectRatio="xMidYMid meet" version="1.0"><defs><g/></defs><path stroke-linecap="butt" transform="matrix(0.75, 0, 0, 0.75, 85.313245, 2.891016)" fill="none" stroke-linejoin="miter" d="M 30.1813 298.858873 L 97.217763 141.686987 L 162.691725 141.686987 L 160.993809 298.858873 L 118.191722 298.858873 L 117.764639 283.692205 L 84.176095 245.853661 L 120.035472 245.853661 L 121.592764 186.327615 L 121.025056 181.796365 L 97.358388 240.041161 L 68.306302 240.041161 L 88.144845 263.145329 L 72.983386 298.858873 Z M 30.1813 298.858873 " stroke="#ffffff" stroke-width="11.247381" stroke-opacity="1" stroke-miterlimit="4"/><g fill="#000000" fill-opacity="1"><g transform="translate(100.934338, 227.141002)"><g><path d="M 7.015625 -0.109375 L 57.296875 -117.984375 L 106.40625 -117.984375 L 105.125 -0.109375 L 73.015625 -0.109375 L 72.703125 -11.484375 L 47.515625 -39.859375 L 74.40625 -39.859375 L 75.578125 -84.5 L 75.15625 -87.90625 L 57.390625 -44.21875 L 35.609375 -44.21875 L 50.484375 -26.890625 L 39.109375 -0.109375 Z M 7.015625 -0.109375 "/></g></g></g><path stroke-linecap="butt" transform="matrix(0.75, 0, 0, 0.75, 168.685203, 2.891016)" fill="none" stroke-linejoin="miter" d="M 93.737444 213.681784 L 102.810361 172.015114 L 71.914526 172.015114 L 61.424942 219.775534 L 50.372858 227.285951 L 55.61765 246.280744 L 44.133274 298.858873 L 4.596813 298.858873 L 34.216607 163.509906 L 17.352022 141.686987 L 137.388488 141.686987 C 138.617655 141.686987 139.799947 142.067196 140.935364 142.822404 C 142.065572 143.577613 143.107239 144.473446 144.049947 145.515113 C 144.997864 146.645321 145.706197 147.780738 146.174947 148.916155 C 146.742656 150.332821 146.930156 151.36928 146.742656 152.030738 L 129.169738 232.817202 L 68.935359 262.718245 L 60.008275 230.686993 Z M 93.737444 213.681784 " stroke="#ffffff" stroke-width="11.247381" stroke-opacity="1" stroke-miterlimit="4"/><g fill="#1791c8" fill-opacity="1"><g transform="translate(172.025047, 227.141002)"><g><path d="M 66.96875 -63.984375 L 73.765625 -95.234375 L 50.59375 -95.234375 L 42.734375 -59.421875 L 34.4375 -53.78125 L 38.375 -39.546875 L 29.765625 -0.109375 L 0.109375 -0.109375 L 22.328125 -101.609375 L 9.671875 -117.984375 L 99.703125 -117.984375 C 100.617188 -117.984375 101.503906 -117.703125 102.359375 -117.140625 C 103.210938 -116.566406 103.992188 -115.890625 104.703125 -115.109375 C 105.410156 -114.265625 105.941406 -113.414062 106.296875 -112.5625 C 106.722656 -111.5 106.863281 -110.71875 106.71875 -110.21875 L 93.53125 -49.640625 L 48.359375 -27.21875 L 41.671875 -51.234375 Z M 66.96875 -63.984375 "/></g></g></g><path stroke-linecap="butt" transform="matrix(0.75, 0, 0, 0.75, 120.085485, 204.011339)" fill="none" stroke-linejoin="miter" d="M 45.630815 68.56822 L 48.547482 55.167177 L 38.61519 55.167177 L 35.240189 70.526553 L 31.688106 72.94322 L 33.375606 79.047387 L 29.682897 95.953638 L 16.969355 95.953638 L 26.490189 52.432802 L 21.068314 45.417177 L 59.667274 45.417177 C 60.063108 45.417177 60.443316 45.536968 60.8079 45.78176 C 61.172483 46.021343 61.505816 46.31301 61.8079 46.646343 C 62.115191 47.010927 62.33915 47.37551 62.4954 47.740093 C 62.677691 48.193218 62.734983 48.53176 62.677691 48.740093 L 57.026649 74.719262 L 37.656856 84.333846 L 34.787064 74.03697 Z M 94.484985 68.750511 L 97.401652 55.349469 L 87.464151 55.349469 L 84.094359 70.708845 L 80.537067 73.125512 L 82.224568 79.276554 L 78.531859 96.13593 L 65.818317 96.13593 L 75.344359 52.661969 L 69.922483 45.599468 L 108.521444 45.599468 C 108.854778 45.599468 109.234986 45.71926 109.656861 45.964052 C 110.052694 46.203635 110.386028 46.510927 110.662069 46.87551 C 110.964153 47.177593 111.193319 47.526552 111.344361 47.922385 C 111.526653 48.37551 111.589153 48.714052 111.526653 48.922385 L 105.875611 74.901553 L 99.130819 78.365095 L 103.276652 95.818221 L 90.839151 101.69843 L 83.636026 74.219262 Z M 117.406862 45.417177 L 137.047488 45.417177 L 126.016237 95.953638 L 113.302695 95.953638 L 122.781862 52.479677 Z M 150.896447 95.906763 L 138.182905 95.906763 L 147.662072 52.432802 L 142.287072 45.370302 L 161.333948 45.370302 L 167.714157 65.740095 L 172.136032 45.370302 L 184.802699 45.370302 L 173.865199 95.359888 L 166.667281 100.740097 L 156.276656 71.344262 Z M 227.365202 59.859886 L 214.65166 59.859886 L 215.656868 55.167177 L 212.464159 55.167177 L 203.578742 95.953638 L 190.818325 95.953638 L 199.750617 55.167177 L 193.781867 55.167177 L 186.125616 45.417177 L 230.511036 45.417177 Z M 227.365202 59.859886 " stroke="#bfbfbf" stroke-width="6.999998" stroke-opacity="1" stroke-miterlimit="4"/><g fill="#000000" fill-opacity="1"><g transform="translate(132.77689, 276.011334)"><g><path d="M 21.53125 -20.578125 L 23.71875 -30.625 L 16.265625 -30.625 L 13.734375 -19.109375 L 11.078125 -17.296875 L 12.34375 -12.71875 L 9.578125 -0.03125 L 0.03125 -0.03125 L 7.171875 -32.671875 L 3.109375 -37.9375 L 32.0625 -37.9375 C 32.351562 -37.9375 32.640625 -37.847656 32.921875 -37.671875 C 33.191406 -37.484375 33.441406 -37.265625 33.671875 -37.015625 C 33.898438 -36.742188 34.070312 -36.472656 34.1875 -36.203125 C 34.320312 -35.859375 34.363281 -35.601562 34.3125 -35.4375 L 30.078125 -15.96875 L 15.546875 -8.75 L 13.40625 -16.46875 Z M 21.53125 -20.578125 "/></g></g></g><g fill="#000000" fill-opacity="1"><g transform="translate(168.526846, 276.011334)"><g><path d="M 22.421875 -20.4375 L 24.609375 -30.484375 L 17.15625 -30.484375 L 14.625 -18.96875 L 11.96875 -17.15625 L 13.234375 -12.546875 L 10.453125 0.109375 L 0.921875 0.109375 L 8.0625 -32.5 L 4 -37.796875 L 32.953125 -37.796875 C 33.203125 -37.796875 33.484375 -37.707031 33.796875 -37.53125 C 34.097656 -37.34375 34.351562 -37.113281 34.5625 -36.84375 C 34.78125 -36.613281 34.945312 -36.351562 35.0625 -36.0625 C 35.207031 -35.71875 35.253906 -35.46875 35.203125 -35.3125 L 30.96875 -15.828125 L 25.90625 -13.234375 L 29.015625 -0.140625 L 19.6875 4.265625 L 14.28125 -16.34375 Z M 22.421875 -20.4375 "/></g></g></g><g fill="#000000" fill-opacity="1"><g transform="translate(205.028713, 276.011334)"><g><path d="M 3.109375 -37.9375 L 17.84375 -37.9375 L 9.578125 -0.03125 L 0.03125 -0.03125 L 7.140625 -32.640625 Z M 3.109375 -37.9375 "/></g></g></g><g fill="#000000" fill-opacity="1"><g transform="translate(223.142935, 276.011334)"><g><path d="M 10.125 -0.0625 L 0.578125 -0.0625 L 7.6875 -32.671875 L 3.65625 -37.96875 L 17.9375 -37.96875 L 22.734375 -22.703125 L 26.046875 -37.96875 L 35.546875 -37.96875 L 27.34375 -0.484375 L 21.9375 3.5625 L 14.15625 -18.484375 Z M 10.125 -0.0625 "/></g></g></g><g fill="#000000" fill-opacity="1"><g transform="translate(259.644802, 276.011334)"><g><path d="M 30.96875 -27.109375 L 21.4375 -27.109375 L 22.1875 -30.625 L 19.796875 -30.625 L 13.125 -0.03125 L 3.5625 -0.03125 L 10.25 -30.625 L 5.78125 -30.625 L 0.03125 -37.9375 L 33.328125 -37.9375 Z M 30.96875 -27.109375 "/></g></g></g><path stroke-linecap="butt" transform="matrix(0.75, 0, 0, 0.75, 37.500002, 204.011339)" fill="none" stroke-linejoin="miter" d="M 66.479168 55.625511 L 51.807292 55.625511 L 50.895834 60.271344 L 39.458333 60.271344 L 42.328125 45.964052 L 70.765627 45.964052 C 71.09896 45.964052 71.463544 46.083843 71.859377 46.328635 C 72.16146 46.542177 72.463544 46.828635 72.770835 47.193218 C 72.921877 47.37551 73.041669 47.557802 73.135419 47.740093 C 73.22396 47.922385 73.31771 48.104677 73.406252 48.286968 C 73.468752 48.50051 73.520835 48.682802 73.56771 48.833843 C 73.614585 48.984885 73.604169 49.135927 73.541669 49.286968 L 69.94271 67.516136 L 64.291668 70.66197 L 68.713543 73.714053 L 64.932293 92.625513 C 64.838543 92.932805 64.656252 93.266138 64.385418 93.630721 C 64.052085 94.057805 63.687501 94.422388 63.291668 94.724471 C 62.833335 95.151555 62.41146 95.453638 62.015626 95.63593 C 61.526043 95.880721 61.119793 96.000513 60.78646 96.000513 L 32.348958 96.000513 L 36.3125 77.542179 L 47.703125 77.542179 L 46.109375 84.380721 L 39.317708 86.339054 L 54.630209 86.339054 L 56.817709 75.495303 L 52.807292 75.495303 L 44.151042 65.833845 L 58.734376 65.833845 L 60.281251 58.083844 Z M 116.60938 45.417177 C 116.973963 45.417177 117.354172 45.536968 117.744797 45.78176 C 118.14063 46.052593 118.489588 46.359885 118.79688 46.693218 C 119.067713 47.026552 119.29688 47.391135 119.479172 47.786968 C 119.661463 48.120302 119.723963 48.43801 119.661463 48.740093 L 110.04688 92.625513 C 110.01563 92.870305 109.817713 93.188013 109.453129 93.583846 C 109.151046 93.97968 108.755213 94.344263 108.270838 94.677596 C 108.026046 94.859888 107.791671 95.021346 107.562504 95.156763 C 107.333338 95.29218 107.098963 95.438013 106.854171 95.589055 C 106.307296 95.833846 105.885421 95.953638 105.578129 95.953638 L 74.958336 95.953638 L 84.479169 52.479677 L 79.104169 45.417177 Z M 96.60417 55.167177 L 89.812503 86.203638 L 98.79167 86.203638 L 105.578129 55.167177 Z M 96.60417 55.167177 " stroke="#bfbfbf" stroke-width="6.999998" stroke-opacity="1" stroke-miterlimit="4"/><g fill="#1791c8" fill-opacity="1"><g transform="translate(60.632813, 276.011334)"><g><path d="M 26.734375 -30.28125 L 15.71875 -30.28125 L 15.046875 -26.796875 L 6.453125 -26.796875 L 8.609375 -37.53125 L 29.9375 -37.53125 C 30.1875 -37.53125 30.460938 -37.4375 30.765625 -37.25 C 30.992188 -37.09375 31.222656 -36.878906 31.453125 -36.609375 C 31.554688 -36.472656 31.644531 -36.332031 31.71875 -36.1875 C 31.789062 -36.050781 31.859375 -35.914062 31.921875 -35.78125 C 31.972656 -35.625 32.015625 -35.488281 32.046875 -35.375 C 32.078125 -35.257812 32.070312 -35.144531 32.03125 -35.03125 L 29.328125 -21.359375 L 25.09375 -19 L 28.40625 -16.71875 L 25.5625 -2.53125 C 25.5 -2.300781 25.363281 -2.050781 25.15625 -1.78125 C 24.90625 -1.457031 24.632812 -1.179688 24.34375 -0.953125 C 24 -0.640625 23.675781 -0.414062 23.375 -0.28125 C 23.007812 -0.09375 22.703125 0 22.453125 0 L 1.125 0 L 4.109375 -13.84375 L 12.640625 -13.84375 L 11.453125 -8.71875 L 6.359375 -7.25 L 17.84375 -7.25 L 19.484375 -15.375 L 16.46875 -15.375 L 9.984375 -22.625 L 20.921875 -22.625 L 22.078125 -28.4375 Z M 26.734375 -30.28125 "/></g></g></g><g fill="#1791c8" fill-opacity="1"><g transform="translate(93.716902, 276.011334)"><g><path d="M 31.234375 -37.9375 C 31.515625 -37.9375 31.800781 -37.847656 32.09375 -37.671875 C 32.394531 -37.460938 32.65625 -37.234375 32.875 -36.984375 C 33.082031 -36.734375 33.253906 -36.457031 33.390625 -36.15625 C 33.523438 -35.90625 33.570312 -35.664062 33.53125 -35.4375 L 26.3125 -2.53125 C 26.289062 -2.34375 26.144531 -2.101562 25.875 -1.8125 C 25.644531 -1.519531 25.347656 -1.242188 24.984375 -0.984375 C 24.804688 -0.847656 24.628906 -0.726562 24.453125 -0.625 C 24.285156 -0.53125 24.109375 -0.425781 23.921875 -0.3125 C 23.515625 -0.125 23.195312 -0.03125 22.96875 -0.03125 L 0 -0.03125 L 7.140625 -32.640625 L 3.109375 -37.9375 Z M 16.234375 -30.625 L 11.140625 -7.34375 L 17.875 -7.34375 L 22.96875 -30.625 Z M 16.234375 -30.625 "/></g></g></g></svg>